<mxfile host="app.diagrams.net" agent="Mozilla/5.0 (Windows NT 10.0; Win64; x64) AppleWebKit/537.36 (KHTML, like Gecko) Chrome/127.0.0.0 Safari/537.36" version="24.7.7">
  <diagram name="PÃ¡gina-1" id="-h2QdFCtCqomxF7-DwnQ">
    <mxGraphModel dx="1114" dy="566" grid="1" gridSize="10" guides="1" tooltips="1" connect="1" arrows="1" fold="1" page="1" pageScale="1" pageWidth="827" pageHeight="1169" math="0" shadow="0">
      <root>
        <mxCell id="0" />
        <mxCell id="1" parent="0" />
        <mxCell id="iPbiu8I5dhuiyggtUMsD-4" value="" style="edgeStyle=orthogonalEdgeStyle;rounded=0;orthogonalLoop=1;jettySize=auto;html=1;" parent="1" source="lbkjivI1VTkUfyXL3xCr-1" target="lbkjivI1VTkUfyXL3xCr-17" edge="1">
          <mxGeometry relative="1" as="geometry" />
        </mxCell>
        <mxCell id="lbkjivI1VTkUfyXL3xCr-1" value="admon" style="verticalAlign=top;align=left;spacingTop=8;spacingLeft=2;spacingRight=12;shape=cube;size=10;direction=south;fontStyle=4;html=1;whiteSpace=wrap;" parent="1" vertex="1">
          <mxGeometry x="170" y="215" width="120" height="85" as="geometry" />
        </mxCell>
        <mxCell id="lbkjivI1VTkUfyXL3xCr-2" value="explorador internet" style="shape=module;align=left;spacingLeft=20;align=center;verticalAlign=top;whiteSpace=wrap;html=1;" parent="1" vertex="1">
          <mxGeometry x="190" y="250" width="80" height="40" as="geometry" />
        </mxCell>
        <mxCell id="lbkjivI1VTkUfyXL3xCr-3" value="usuario" style="shape=umlActor;verticalLabelPosition=bottom;verticalAlign=top;html=1;" parent="1" vertex="1">
          <mxGeometry x="90" y="230" width="30" height="60" as="geometry" />
        </mxCell>
        <mxCell id="lbkjivI1VTkUfyXL3xCr-6" style="edgeStyle=orthogonalEdgeStyle;rounded=0;orthogonalLoop=1;jettySize=auto;html=1;entryX=0.458;entryY=1;entryDx=0;entryDy=0;entryPerimeter=0;" parent="1" source="lbkjivI1VTkUfyXL3xCr-3" target="lbkjivI1VTkUfyXL3xCr-1" edge="1">
          <mxGeometry relative="1" as="geometry" />
        </mxCell>
        <mxCell id="iPbiu8I5dhuiyggtUMsD-5" value="" style="edgeStyle=orthogonalEdgeStyle;rounded=0;orthogonalLoop=1;jettySize=auto;html=1;" parent="1" source="lbkjivI1VTkUfyXL3xCr-8" target="iPbiu8I5dhuiyggtUMsD-2" edge="1">
          <mxGeometry relative="1" as="geometry" />
        </mxCell>
        <mxCell id="lbkjivI1VTkUfyXL3xCr-8" value="vendedor" style="verticalAlign=top;align=left;spacingTop=8;spacingLeft=2;spacingRight=12;shape=cube;size=10;direction=south;fontStyle=4;html=1;whiteSpace=wrap;" parent="1" vertex="1">
          <mxGeometry x="170" y="330" width="130" height="80" as="geometry" />
        </mxCell>
        <mxCell id="lbkjivI1VTkUfyXL3xCr-9" style="edgeStyle=orthogonalEdgeStyle;rounded=0;orthogonalLoop=1;jettySize=auto;html=1;exitX=0.5;exitY=0.5;exitDx=0;exitDy=0;exitPerimeter=0;entryX=0.333;entryY=0.383;entryDx=0;entryDy=0;entryPerimeter=0;" parent="1" source="lbkjivI1VTkUfyXL3xCr-3" target="lbkjivI1VTkUfyXL3xCr-3" edge="1">
          <mxGeometry relative="1" as="geometry" />
        </mxCell>
        <mxCell id="lbkjivI1VTkUfyXL3xCr-10" value="explorador internet" style="shape=module;align=left;spacingLeft=20;align=center;verticalAlign=top;whiteSpace=wrap;html=1;" parent="1" vertex="1">
          <mxGeometry x="190" y="360" width="90" height="40" as="geometry" />
        </mxCell>
        <mxCell id="lbkjivI1VTkUfyXL3xCr-11" value="usuario" style="shape=umlActor;verticalLabelPosition=bottom;verticalAlign=top;html=1;" parent="1" vertex="1">
          <mxGeometry x="90" y="340" width="30" height="60" as="geometry" />
        </mxCell>
        <mxCell id="lbkjivI1VTkUfyXL3xCr-13" style="edgeStyle=orthogonalEdgeStyle;rounded=0;orthogonalLoop=1;jettySize=auto;html=1;entryX=0.4;entryY=0.982;entryDx=0;entryDy=0;entryPerimeter=0;" parent="1" source="lbkjivI1VTkUfyXL3xCr-11" target="lbkjivI1VTkUfyXL3xCr-8" edge="1">
          <mxGeometry relative="1" as="geometry" />
        </mxCell>
        <mxCell id="lbkjivI1VTkUfyXL3xCr-14" value="servidor local" style="verticalAlign=top;align=left;spacingTop=8;spacingLeft=2;spacingRight=12;shape=cube;size=10;direction=south;fontStyle=4;html=1;whiteSpace=wrap;" parent="1" vertex="1">
          <mxGeometry x="350" y="130" width="240" height="270" as="geometry" />
        </mxCell>
        <mxCell id="iPbiu8I5dhuiyggtUMsD-11" value="" style="edgeStyle=orthogonalEdgeStyle;rounded=0;orthogonalLoop=1;jettySize=auto;html=1;" parent="1" source="lbkjivI1VTkUfyXL3xCr-15" target="lbkjivI1VTkUfyXL3xCr-16" edge="1">
          <mxGeometry relative="1" as="geometry" />
        </mxCell>
        <mxCell id="lbkjivI1VTkUfyXL3xCr-15" value="usuarios" style="shape=module;align=left;spacingLeft=20;align=center;verticalAlign=top;whiteSpace=wrap;html=1;" parent="1" vertex="1">
          <mxGeometry x="470" y="160" width="90" height="40" as="geometry" />
        </mxCell>
        <mxCell id="lbkjivI1VTkUfyXL3xCr-16" value="login" style="shape=module;align=left;spacingLeft=20;align=center;verticalAlign=top;whiteSpace=wrap;html=1;" parent="1" vertex="1">
          <mxGeometry x="360" y="160" width="80" height="40" as="geometry" />
        </mxCell>
        <mxCell id="iPbiu8I5dhuiyggtUMsD-12" value="" style="edgeStyle=orthogonalEdgeStyle;rounded=0;orthogonalLoop=1;jettySize=auto;html=1;" parent="1" source="lbkjivI1VTkUfyXL3xCr-17" target="iPbiu8I5dhuiyggtUMsD-3" edge="1">
          <mxGeometry relative="1" as="geometry" />
        </mxCell>
        <mxCell id="lbkjivI1VTkUfyXL3xCr-17" value="ventas" style="shape=module;align=left;spacingLeft=20;align=center;verticalAlign=top;whiteSpace=wrap;html=1;" parent="1" vertex="1">
          <mxGeometry x="360" y="230" width="80" height="40" as="geometry" />
        </mxCell>
        <mxCell id="lbkjivI1VTkUfyXL3xCr-21" value="base de datos&amp;nbsp;" style="verticalAlign=top;align=left;spacingTop=8;spacingLeft=2;spacingRight=12;shape=cube;size=10;direction=south;fontStyle=4;html=1;whiteSpace=wrap;" parent="1" vertex="1">
          <mxGeometry x="650" y="260" width="140" height="100" as="geometry" />
        </mxCell>
        <mxCell id="lbkjivI1VTkUfyXL3xCr-22" value="xampp mysql" style="shape=module;align=left;spacingLeft=20;align=center;verticalAlign=top;whiteSpace=wrap;html=1;" parent="1" vertex="1">
          <mxGeometry x="660" y="300" width="100" height="50" as="geometry" />
        </mxCell>
        <mxCell id="tNURlzXnL4SX5BQe6nf5-1" value="" style="edgeStyle=orthogonalEdgeStyle;rounded=0;orthogonalLoop=1;jettySize=auto;html=1;" edge="1" parent="1" source="iPbiu8I5dhuiyggtUMsD-2" target="lbkjivI1VTkUfyXL3xCr-17">
          <mxGeometry relative="1" as="geometry" />
        </mxCell>
        <mxCell id="tNURlzXnL4SX5BQe6nf5-2" style="edgeStyle=orthogonalEdgeStyle;rounded=0;orthogonalLoop=1;jettySize=auto;html=1;" edge="1" parent="1" source="iPbiu8I5dhuiyggtUMsD-2" target="iPbiu8I5dhuiyggtUMsD-3">
          <mxGeometry relative="1" as="geometry" />
        </mxCell>
        <mxCell id="iPbiu8I5dhuiyggtUMsD-2" value="productos" style="shape=module;align=left;spacingLeft=20;align=center;verticalAlign=top;whiteSpace=wrap;html=1;" parent="1" vertex="1">
          <mxGeometry x="368" y="330" width="90" height="40" as="geometry" />
        </mxCell>
        <mxCell id="iPbiu8I5dhuiyggtUMsD-3" value="detalleVentas" style="shape=module;align=left;spacingLeft=20;align=center;verticalAlign=top;whiteSpace=wrap;html=1;" parent="1" vertex="1">
          <mxGeometry x="470" y="230" width="100" height="50" as="geometry" />
        </mxCell>
        <mxCell id="iPbiu8I5dhuiyggtUMsD-10" value="" style="endArrow=classic;startArrow=classic;html=1;rounded=0;entryX=0.79;entryY=1.02;entryDx=0;entryDy=0;entryPerimeter=0;" parent="1" target="lbkjivI1VTkUfyXL3xCr-21" edge="1">
          <mxGeometry width="50" height="50" relative="1" as="geometry">
            <mxPoint x="590" y="340" as="sourcePoint" />
            <mxPoint x="640" y="290" as="targetPoint" />
          </mxGeometry>
        </mxCell>
      </root>
    </mxGraphModel>
  </diagram>
</mxfile>
